<svg width="120" height="120" viewBox="0 0 120 120" fill="none" xmlns="http://www.w3.org/2000/svg">
<circle cx="60" cy="60" r="60" fill="#D9D9D9"/>
<path fill-rule="evenodd" clip-rule="evenodd" d="M65.6485 63.6841L65.8579 63.5758C67.1333 62.9309 68.3607 62.5747 69.3065 62.5747C70.0693 62.5747 70.6541 62.7985 71.044 63.2389C71.4844 63.7347 71.6504 64.4855 71.5325 65.4722C70.8105 71.5752 64.7701 77.3437 59.4613 80.1233C53.3318 83.3312 46.4948 84.0387 45.1255 84.1518C45.046 84.1566 44.9666 84.1614 44.8776 84.1614C44.9955 83.9737 53.9912 69.4334 65.6461 63.6817M79.657 28.96C77.4622 36.1604 72.0547 40.7762 67.9179 43.7363C66.8205 44.5208 67.9034 45.108 67.9323 46.2198C67.9684 47.6036 65.48 49.3219 61.6873 53.4756C68.931 39.4333 79.657 28.96 79.657 28.96ZM43.9535 86.0386C43.9655 86.0386 44.2182 86.0313 44.6634 86.0073C46.8943 85.8749 54.0513 85.2179 61.4467 81.9715C65.3381 80.2628 76.4106 73.8133 76.4106 65.1473C76.4106 61.8648 74.418 59.9853 71.0271 59.9853C65.8627 59.9853 59.6177 64.1582 52.6411 71.4308C52.463 71.657 52.1357 71.4982 53.0358 70.0302C54.7781 67.1881 58.7321 59.9323 67.386 51.3891C72.4446 46.3955 69.8696 44.4823 69.8696 44.4823C69.8696 44.4823 74.9787 42.1311 78.8243 37.1134C81.1274 34.1101 84.0466 28.2188 82.7735 26.6137C81.7194 25.2828 79.5608 25.9567 74.7332 30.2235C68.7289 35.5251 59.6297 50.9727 54.6891 60.238C53.4714 62.5242 46.3696 74.8409 41.3159 83.5815C40.3008 83.2221 39.3421 82.7196 38.469 82.0894L37.8505 83.1796C38.3583 83.7114 39.3064 84.4165 40.5025 84.9893C38.055 89.22 36.2525 92.3293 36.1442 92.5218C35.8073 93.1018 36.1178 93.3545 36.4908 93.1884L37.8216 92.6084C41.2269 91.1308 41.9368 90.5147 42.1847 89.0949C42.6323 86.4958 43.9511 86.0386 43.9535 86.0386Z" fill="#959595"/>
</svg>
