<svg width="359" height="44" viewBox="0 0 359 44" fill="none" xmlns="http://www.w3.org/2000/svg">
<rect width="360" height="44" fill="#00C6BE"/>
<path d="M25.0927 17.26C27.1627 17.26 29.2177 18.505 29.2327 22.36C29.2327 26.035 27.5677 28.15 24.9727 28.15C22.9177 28.15 21.5077 26.875 21.2827 25.12H23.1727C23.3677 25.96 24.0127 26.5 24.9727 26.5C26.5027 26.5 27.3727 25.135 27.3727 22.87H27.2527C26.7277 23.785 25.7077 24.325 24.5527 24.34C22.6477 24.325 21.1777 22.885 21.1927 20.89C21.1777 18.805 22.7377 17.23 25.0927 17.26ZM23.0227 20.83C23.0377 21.97 23.8777 22.87 25.0627 22.87C26.2477 22.87 27.1627 21.925 27.1627 20.83C27.1477 19.735 26.2927 18.79 25.0927 18.79C23.9077 18.79 23.0227 19.705 23.0227 20.83ZM31.6895 26.74C31.0745 26.74 30.5495 26.23 30.5495 25.6C30.5495 24.985 31.0745 24.475 31.6895 24.46C32.3045 24.475 32.8295 24.985 32.8295 25.6C32.8295 26.23 32.3045 26.74 31.6895 26.74ZM30.5495 20.32C30.5495 19.705 31.0745 19.195 31.6895 19.18C32.3045 19.195 32.8295 19.705 32.8295 20.32C32.8295 20.95 32.3045 21.46 31.6895 21.46C31.0745 21.46 30.5495 20.95 30.5495 20.32ZM34.1264 26.02V24.49L38.7164 17.38H41.0864V24.46H42.4664V26.02H41.0864V28H39.2564V26.02H34.1264ZM36.0764 24.46H39.2864V19.57H39.1964L36.0764 24.37V24.46ZM47.8772 17.38V28H45.9572V19.24H45.8972L43.4072 20.83V19.09L46.0472 17.38H47.8772Z" fill="white"/>
<rect opacity="0.35" x="321.833" y="17.8333" width="21" height="10.3333" rx="2.16667" stroke="white"/>
<path opacity="0.4" d="M344.333 21V25C345.138 24.6612 345.662 23.8731 345.662 23C345.662 22.1269 345.138 21.3388 344.333 21Z" fill="white"/>
<rect x="323.333" y="19.3333" width="18" height="7.33333" rx="1.33333" fill="white"/>
<path fill-rule="evenodd" clip-rule="evenodd" d="M308.667 19.615C310.892 19.6151 313.031 20.4693 314.644 22.0008C314.765 22.1191 314.959 22.1176 315.079 21.9975L316.239 20.8272C316.3 20.7663 316.334 20.6837 316.333 20.5979C316.333 20.5121 316.298 20.4299 316.237 20.3697C312.005 16.3175 305.329 16.3175 301.097 20.3697C301.035 20.4299 301.001 20.512 301 20.5978C300.999 20.6837 301.033 20.7662 301.094 20.8272L302.255 21.9975C302.374 22.1178 302.568 22.1193 302.69 22.0008C304.302 20.4692 306.442 19.615 308.667 19.615ZM308.667 23.4226C309.889 23.4226 311.068 23.8765 311.974 24.6963C312.097 24.8126 312.29 24.8101 312.409 24.6906L313.569 23.5203C313.63 23.4589 313.663 23.3756 313.663 23.2891C313.662 23.2025 313.626 23.12 313.564 23.0598C310.805 20.4954 306.532 20.4954 303.773 23.0598C303.71 23.12 303.675 23.2026 303.674 23.2891C303.673 23.3757 303.707 23.459 303.768 23.5203L304.927 24.6906C305.047 24.8101 305.24 24.8126 305.362 24.6963C306.268 23.877 307.446 23.4231 308.667 23.4226ZM310.989 25.9845C310.991 26.0712 310.957 26.1549 310.895 26.2157L308.89 28.2377C308.831 28.2971 308.751 28.3306 308.667 28.3306C308.583 28.3306 308.503 28.2971 308.445 28.2377L306.439 26.2157C306.377 26.1549 306.343 26.0712 306.345 25.9844C306.347 25.8976 306.384 25.8154 306.449 25.7573C307.729 24.675 309.605 24.675 310.886 25.7573C310.95 25.8155 310.988 25.8977 310.989 25.9845Z" fill="white"/>
<path fill-rule="evenodd" clip-rule="evenodd" d="M295 17.6667H294C293.448 17.6667 293 18.1145 293 18.6667V27.3334C293 27.8857 293.448 28.3334 294 28.3334H295C295.552 28.3334 296 27.8857 296 27.3334V18.6667C296 18.1145 295.552 17.6667 295 17.6667ZM289.333 20.0001H290.333C290.886 20.0001 291.333 20.4478 291.333 21.0001V27.3334C291.333 27.8857 290.886 28.3334 290.333 28.3334H289.333C288.781 28.3334 288.333 27.8857 288.333 27.3334V21.0001C288.333 20.4478 288.781 20.0001 289.333 20.0001ZM285.667 22.3334H284.667C284.114 22.3334 283.667 22.7811 283.667 23.3334V27.3334C283.667 27.8857 284.114 28.3334 284.667 28.3334H285.667C286.219 28.3334 286.667 27.8857 286.667 27.3334V23.3334C286.667 22.7811 286.219 22.3334 285.667 22.3334ZM281 24.3334H280C279.448 24.3334 279 24.7811 279 25.3334V27.3334C279 27.8857 279.448 28.3334 280 28.3334H281C281.552 28.3334 282 27.8857 282 27.3334V25.3334C282 24.7811 281.552 24.3334 281 24.3334Z" fill="white"/>
</svg>
