<svg width="40" height="40" viewBox="0 0 40 40" fill="none" xmlns="http://www.w3.org/2000/svg">
<mask id="mask0_13_2032" style="mask-type:alpha" maskUnits="userSpaceOnUse" x="0" y="0" width="40" height="40">
<rect width="40" height="40" fill="#D9D9D9"/>
</mask>
<g mask="url(#mask0_13_2032)">
<path d="M20 37.3716L14.3675 31.722H25.6496L20 37.3716ZM6.77377 27.4999C6.05738 27.4999 5.44377 27.2445 4.93294 26.7337C4.4221 26.2228 4.16669 25.6092 4.16669 24.8928V8.44034C4.16669 7.72395 4.4221 7.11034 4.93294 6.5995C5.44377 6.08867 6.05738 5.83325 6.77377 5.83325H33.2263C33.9427 5.83325 34.5563 6.08867 35.0671 6.5995C35.5779 7.11034 35.8334 7.72395 35.8334 8.44034V24.8928C35.8334 25.6092 35.5779 26.2228 35.0671 26.7337C34.5563 27.2445 33.9427 27.4999 33.2263 27.4999H6.77377ZM6.77377 25.4058H33.2263C33.3546 25.4058 33.4722 25.3524 33.5792 25.2458C33.6859 25.1388 33.7392 25.0212 33.7392 24.8928V8.44034C33.7392 8.312 33.6859 8.19436 33.5792 8.08742C33.4722 7.98075 33.3546 7.92742 33.2263 7.92742H6.77377C6.64544 7.92742 6.5278 7.98075 6.42085 8.08742C6.31419 8.19436 6.26085 8.312 6.26085 8.44034V24.8928C6.26085 25.0212 6.31419 25.1388 6.42085 25.2458C6.5278 25.3524 6.64544 25.4058 6.77377 25.4058ZM13.6046 23.0341H26.4125V20.4916H13.6046V23.0341ZM8.46377 17.9378H11.0063V15.3953H8.46377V17.9378ZM13.6046 17.9378H16.1475V15.3953H13.6046V17.9378ZM18.7288 17.9378H21.2713V15.3953H18.7288V17.9378ZM23.8696 17.9378H26.4125V15.3953H23.8696V17.9378ZM28.9938 17.9378H31.5363V15.3953H28.9938V17.9378ZM8.46377 12.8312H11.0063V10.2883H8.46377V12.8312ZM13.6046 12.8312H16.1475V10.2883H13.6046V12.8312ZM18.7288 12.8312H21.2713V10.2883H18.7288V12.8312ZM23.8696 12.8312H26.4125V10.2883H23.8696V12.8312ZM28.9938 12.8312H31.5363V10.2883H28.9938V12.8312Z" fill="#959595"/>
</g>
</svg>