<svg width="40" height="40" viewBox="0 0 40 40" fill="none" xmlns="http://www.w3.org/2000/svg">
<mask id="mask0_13_2247" style="mask-type:alpha" maskUnits="userSpaceOnUse" x="0" y="0" width="40" height="40">
<rect width="40" height="40" fill="#D9D9D9"/>
</mask>
<g mask="url(#mask0_13_2247)">
<path d="M19.9911 28.3847C21.868 28.3847 23.448 27.7432 24.7311 26.4602C26.0141 25.1771 26.6557 23.5971 26.6557 21.7202C26.6557 19.8435 26.0141 18.2664 24.7311 16.9889C23.448 15.7114 21.868 15.0727 19.9911 15.0727C18.1144 15.0727 16.5373 15.7114 15.2598 16.9889C13.9826 18.2664 13.344 19.8435 13.344 21.7202C13.344 23.5971 13.9826 25.1771 15.2598 26.4602C16.5373 27.7432 18.1144 28.3847 19.9911 28.3847ZM19.9911 26.2906C18.6905 26.2906 17.6065 25.8541 16.739 24.981C15.8715 24.1077 15.4378 23.0207 15.4378 21.7202C15.4378 20.4196 15.8715 19.3356 16.739 18.4681C17.6065 17.6006 18.6905 17.1668 19.9911 17.1668C21.2919 17.1668 22.3789 17.6006 23.2519 18.4681C24.1253 19.3356 24.5619 20.4196 24.5619 21.7202C24.5619 23.0207 24.1253 24.1077 23.2519 24.981C22.3789 25.8541 21.2919 26.2906 19.9911 26.2906ZM6.77359 34.1668C6.0572 34.1668 5.44359 33.9114 4.93275 33.4006C4.42192 32.8897 4.1665 32.2761 4.1665 31.5597V11.9147C4.1665 11.2081 4.42192 10.597 4.93275 10.0814C5.44359 9.56586 6.0572 9.30808 6.77359 9.30808H12.2861L15.3523 5.8335H24.6473L27.7136 9.30808H33.2261C33.9328 9.30808 34.5439 9.56586 35.0594 10.0814C35.5753 10.597 35.8332 11.2081 35.8332 11.9147V31.5597C35.8332 32.2761 35.5753 32.8897 35.0594 33.4006C34.5439 33.9114 33.9328 34.1668 33.2261 34.1668H6.77359ZM6.77359 32.0727H33.2261C33.3758 32.0727 33.4987 32.0246 33.5948 31.9285C33.691 31.8324 33.739 31.7095 33.739 31.5597V11.9147C33.739 11.7722 33.691 11.6511 33.5948 11.5514C33.4987 11.4517 33.3758 11.4018 33.2261 11.4018H26.7561L23.6986 7.92766H16.3011L13.2436 11.4018H6.77359C6.62387 11.4018 6.50095 11.4517 6.40484 11.5514C6.30873 11.6511 6.26067 11.7722 6.26067 11.9147V31.5597C6.26067 31.7095 6.30873 31.8324 6.40484 31.9285C6.50095 32.0246 6.62387 32.0727 6.77359 32.0727Z" fill="white"/>
</g>
</svg>
