<svg width="62" height="24" viewBox="0 0 62 24" fill="none" xmlns="http://www.w3.org/2000/svg">
<rect width="62" height="24" rx="12" fill="#231F20"/>
<path d="M17.2598 9.44C17.2498 11.03 18.3298 12.62 19.5998 13.2L19.1398 13.82C18.1498 13.33 17.2898 12.3 16.8798 11.05C16.4798 12.37 15.6198 13.47 14.5998 13.98L14.1198 13.34C15.4198 12.75 16.4898 11.09 16.4998 9.44V7.86H17.2598V9.44ZM20.5598 15.8V7.12H21.3198V15.8H20.5598ZM25.7624 8.72C25.7524 9.88 26.6024 10.93 27.8824 11.38L27.5024 11.96C26.5124 11.62 25.7624 10.91 25.3824 10.02C25.0124 11 24.2124 11.77 23.2024 12.14L22.7824 11.54C24.0824 11.08 24.9924 9.97 25.0024 8.72V8.34H23.0224V7.72H27.7024V8.34H25.7624V8.72ZM23.9224 13.44V12.8H29.6024V15.8H28.8424V13.44H23.9224ZM28.8424 12.34V7.12H29.6024V9.4H30.9024V10.06H29.6024V12.34H28.8424ZM38.185 7.12V10.7H39.625V11.34H38.185V15.8H37.425V7.12H38.185ZM31.405 9.14V8.5H33.645V7.22H34.405V8.5H36.565V9.14H31.405ZM31.905 11.86C31.895 10.68 32.795 9.86 34.025 9.86C35.265 9.86 36.155 10.68 36.165 11.86C36.155 13.03 35.265 13.85 34.025 13.84C32.795 13.85 31.895 13.03 31.905 11.86ZM32.645 11.86C32.635 12.65 33.225 13.2 34.025 13.2C34.835 13.2 35.425 12.65 35.425 11.86C35.425 11.07 34.835 10.5 34.025 10.5C33.225 10.5 32.635 11.07 32.645 11.86ZM47.2676 7.12V15.8H46.5076V7.12H47.2676ZM40.2076 13.54C42.5576 12.42 43.7576 10.75 43.9276 8.68H40.6076V8.06H44.7076C44.6976 10.55 43.5376 12.76 40.6276 14.16L40.2076 13.54Z" fill="white"/>
</svg>
