<svg width="22" height="21" viewBox="0 0 22 21" fill="none" xmlns="http://www.w3.org/2000/svg">
<path d="M5.6155 6.45241L5.75068 5.70046C6.61247 5.86944 7.04115 6.05531 6.97356 6.37637C6.90597 6.69743 6.0295 6.60976 5.33669 6.41543C4.64388 6.22111 3.78209 5.83564 3.93417 4.9992C4.08625 4.16276 5.20995 3.83325 7.25459 3.83325H18.8352V16.114C18.8352 16.114 10.3793 16.114 4.93167 16.114" stroke="white" stroke-linecap="round" stroke-linejoin="round"/>
<path d="M3.93478 4.99902L2.2281 14.1914C2.13516 14.6815 2.15206 15.1884 2.27035 15.67L3.03075 18.7454L4.84726 16.1516C5.13452 15.746 5.32885 15.2729 5.42179 14.7828L6.97639 6.38464" stroke="white" stroke-linecap="round" stroke-linejoin="round"/>
<path d="M16.2058 9.03655H15.739L16.1757 7.61789C16.2008 7.53207 16.1857 7.44119 16.1355 7.37051C16.0803 7.29983 16 7.25439 15.9097 7.25439H15.1368C15.0163 7.25439 14.9059 7.33517 14.8708 7.45129L14.3789 9.03655H13.621L13.1894 7.46139C13.1543 7.34022 13.0439 7.25439 12.9184 7.25439H12.1355C12.01 7.25439 11.8996 7.34022 11.8644 7.46139L11.4328 9.03655H10.675L10.1831 7.45129C10.148 7.33517 10.0376 7.25439 9.91711 7.25439H9.1442C9.05386 7.25439 8.97355 7.29478 8.91835 7.37051C8.86314 7.44119 8.84808 7.53207 8.87819 7.61789L9.31484 9.03655H8.84808C8.6925 9.03655 8.57204 9.16277 8.57204 9.31423V10.0564C8.57204 10.2129 8.69751 10.334 8.84808 10.334H9.72137L10.4441 12.6715C10.4792 12.7877 10.5896 12.8684 10.7101 12.8684L11.4981 12.8583C11.6185 12.8583 11.7289 12.7725 11.7641 12.6564L12.4215 10.334H12.6122L13.2697 12.6564C13.3049 12.7725 13.4103 12.8583 13.5357 12.8583L14.3237 12.8684C14.4492 12.8684 14.5546 12.7877 14.5947 12.6715L15.3174 10.334H16.1907C16.3463 10.334 16.4668 10.2078 16.4668 10.0564V9.31423C16.4668 9.15772 16.3413 9.03655 16.1907 9.03655H16.2058Z" fill="white"/>
</svg>
