<svg width="40" height="40" viewBox="0 0 40 40" fill="none" xmlns="http://www.w3.org/2000/svg">
<mask id="mask0_13_1994" style="mask-type:alpha" maskUnits="userSpaceOnUse" x="0" y="0" width="40" height="40">
<rect width="40" height="40" fill="#D9D9D9"/>
</mask>
<g mask="url(#mask0_13_1994)">
<path d="M8.44043 34.1666C7.72404 34.1666 7.11043 33.9112 6.59959 33.4003C6.08876 32.8895 5.83334 32.2759 5.83334 31.5595V8.44034C5.83334 7.72395 6.08876 7.11034 6.59959 6.5995C7.11043 6.08867 7.72404 5.83325 8.44043 5.83325H31.5596C32.276 5.83325 32.8896 6.08867 33.4004 6.5995C33.9113 7.11034 34.1667 7.72395 34.1667 8.44034V31.5595C34.1667 32.2759 33.9113 32.8895 33.4004 33.4003C32.8896 33.9112 32.276 34.1666 31.5596 34.1666H8.44043ZM9.65584 22.0191L16.5704 15.1045L23.44 21.9745L30.3271 15.0874L32.0725 16.8333V8.44034C32.0725 8.29061 32.0245 8.1677 31.9283 8.07158C31.8322 7.97547 31.7093 7.92742 31.5596 7.92742H8.44043C8.29071 7.92742 8.16779 7.97547 8.07168 8.07158C7.97557 8.1677 7.92751 8.29061 7.92751 8.44034V20.2908L9.65584 22.0191ZM8.44043 32.0724H31.5596C31.7093 32.0724 31.8322 32.0244 31.9283 31.9283C32.0245 31.8321 32.0725 31.7092 32.0725 31.5595V19.8074L30.3271 18.062L23.44 24.9487L16.5704 18.0791L9.65584 24.9828L7.92751 23.2649V31.5595C7.92751 31.7092 7.97557 31.8321 8.07168 31.9283C8.16779 32.0244 8.29071 32.0724 8.44043 32.0724ZM7.92751 32.0724V19.8074V21.9016V7.92742V32.0724Z" fill="#959595"/>
</g>
</svg>
