<svg width="24" height="24" viewBox="0 0 24 24" fill="none" xmlns="http://www.w3.org/2000/svg">
<mask id="mask0_14_916" style="mask-type:alpha" maskUnits="userSpaceOnUse" x="0" y="0" width="24" height="24">
<rect width="24" height="24" fill="#D9D9D9"/>
</mask>
<g mask="url(#mask0_14_916)">
<path d="M12.0023 15.577C13.1354 15.577 14.0978 15.1804 14.8895 14.3872C15.6812 13.5941 16.077 12.6309 16.077 11.4978C16.077 10.3646 15.6804 9.40217 14.8873 8.6105C14.0941 7.81883 13.1309 7.423 11.9978 7.423C10.8646 7.423 9.90218 7.81958 9.11051 8.61275C8.31885 9.40592 7.92301 10.3691 7.92301 11.5023C7.92301 12.6354 8.3196 13.5978 9.11276 14.3895C9.90593 15.1812 10.8691 15.577 12.0023 15.577ZM12 14.2C11.25 14.2 10.6125 13.9375 10.0875 13.4125C9.56251 12.8875 9.30001 12.25 9.30001 11.5C9.30001 10.75 9.56251 10.1125 10.0875 9.5875C10.6125 9.0625 11.25 8.8 12 8.8C12.75 8.8 13.3875 9.0625 13.9125 9.5875C14.4375 10.1125 14.7 10.75 14.7 11.5C14.7 12.25 14.4375 12.8875 13.9125 13.4125C13.3875 13.9375 12.75 14.2 12 14.2ZM12.0013 18.5C9.70176 18.5 7.60651 17.8657 5.71551 16.597C3.82451 15.3285 2.43218 13.6295 1.53851 11.5C2.43218 9.3705 3.82401 7.6715 5.71401 6.403C7.60418 5.13433 9.6991 4.5 11.9988 4.5C14.2983 4.5 16.3935 5.13433 18.2845 6.403C20.1755 7.6715 21.5678 9.3705 22.4615 11.5C21.5678 13.6295 20.176 15.3285 18.286 16.597C16.3958 17.8657 14.3009 18.5 12.0013 18.5ZM12 17C13.8833 17 15.6125 16.5042 17.1875 15.5125C18.7625 14.5208 19.9667 13.1833 20.8 11.5C19.9667 9.81667 18.7625 8.47917 17.1875 7.4875C15.6125 6.49583 13.8833 6 12 6C10.1167 6 8.38751 6.49583 6.81251 7.4875C5.23751 8.47917 4.03335 9.81667 3.20001 11.5C4.03335 13.1833 5.23751 14.5208 6.81251 15.5125C8.38751 16.5042 10.1167 17 12 17Z" fill="#111111"/>
</g>
</svg>
