<svg width="55" height="23" viewBox="0 0 55 23" fill="none" xmlns="http://www.w3.org/2000/svg">
<path fill-rule="evenodd" clip-rule="evenodd" d="M17.657 19.508C16.5449 19.508 15.622 19.195 14.8882 18.5687C14.1544 17.9426 13.7877 16.7536 13.7877 15.0017V10.0575H11.3707V7.66029H13.7877V4.1913L16.5336 4.16821V7.66029H20.0283V10.0575H16.5336V15.1286C16.5336 16.504 17.0972 17.1915 18.2244 17.1915H20.0283V19.508H17.657Z" fill="black"/>
<path fill-rule="evenodd" clip-rule="evenodd" d="M29.2532 16.7997C29.7711 16.4847 30.1795 16.0467 30.4784 15.4858C30.7774 14.9251 30.9269 14.2911 30.9269 13.5842C30.9269 12.8851 30.7774 12.2531 30.4784 11.6884C30.1795 11.1235 29.7694 10.6819 29.2475 10.3629C28.7255 10.0441 28.1427 9.88461 27.5 9.88461C26.8568 9.88461 26.2745 10.0441 25.7525 10.3629C25.2306 10.6819 24.82 11.1235 24.5213 11.6884C24.2226 12.2531 24.0731 12.8851 24.0731 13.5842C24.0731 14.2911 24.2226 14.9251 24.5213 15.4858C24.82 16.0467 25.2286 16.4847 25.7468 16.7997C26.265 17.1148 26.8493 17.2722 27.5 17.2722C28.1505 17.2722 28.7348 17.1148 29.2532 16.7997ZM24.3398 19.0239C23.4054 18.4632 22.6736 17.7044 22.1441 16.7478C21.6146 15.7912 21.3499 14.7367 21.3499 13.5842C21.3499 12.4393 21.6146 11.3868 22.1441 10.4264C22.6736 9.46594 23.4054 8.70519 24.3398 8.14431C25.2741 7.58357 26.3236 7.30298 27.4886 7.30298C28.6611 7.30298 29.7163 7.58357 30.6544 8.14431C31.5925 8.70519 32.3263 9.46594 32.8559 10.4264C33.3852 11.3868 33.6501 12.4393 33.6501 13.5842C33.6501 14.7367 33.3852 15.7932 32.8559 16.7536C32.3263 17.7141 31.5905 18.4728 30.6486 19.0297C29.7069 19.5868 28.6498 19.8653 27.4773 19.8653C26.32 19.8653 25.2741 19.5848 24.3398 19.0239Z" fill="black"/>
<path fill-rule="evenodd" clip-rule="evenodd" d="M35.813 19.5081V7.6604H38.4455V9.80409C38.7252 9.13556 39.132 8.61122 39.6653 8.23092C40.1987 7.85047 40.8358 7.6604 41.5773 7.6604H42.8254V10.0576H41.7248C41.0967 10.0576 40.5447 10.2113 40.0682 10.5187C39.5917 10.826 39.2209 11.2754 38.956 11.867C38.6912 12.4587 38.5589 13.1693 38.5589 13.9991V19.5081H35.813Z" fill="black"/>
<path fill-rule="evenodd" clip-rule="evenodd" d="M0 15.732H2.69774C2.8349 16.8931 3.818 17.6129 5.34972 17.6129C6.81293 17.6129 7.61297 16.9859 7.61297 16.0571C7.61297 15.3372 7.11012 14.9425 5.55552 14.6407L3.6122 14.2691C1.16603 13.8279 0.11442 12.6901 0.11442 10.9951C0.11442 8.7659 1.98894 7.18677 5.14406 7.18677C8.16173 7.18677 9.99064 8.64969 10.1736 11.1576H7.4987C7.33881 10.0661 6.46998 9.41594 4.96114 9.41594C3.52081 9.41594 2.78913 9.99655 2.78913 10.8093C2.78913 11.4362 3.22362 11.8078 4.82399 12.1097L6.76717 12.4578C9.14484 12.8992 10.288 13.9905 10.288 15.8248C10.288 18.1933 8.4133 19.8653 5.23545 19.8653C2.12625 19.8653 0.11442 18.2863 0 15.732Z" fill="black"/>
<path fill-rule="evenodd" clip-rule="evenodd" d="M0 2.39325H55V0H0V2.39325Z" fill="black"/>
<path fill-rule="evenodd" clip-rule="evenodd" d="M54.9999 7.66016L52.0725 7.67162L49.529 14.142L49.0668 16.0504L48.6049 14.142L46.0585 7.66016H43.1312L47.6041 19.0389L46.051 23H48.9788L54.9999 7.66016Z" fill="black"/>
</svg>
