<svg width="32" height="32" viewBox="0 0 32 32" fill="none" xmlns="http://www.w3.org/2000/svg">
<path d="M30.0444 32L18.3556 20.3111C17.4667 21.0815 16.4302 21.6815 15.2462 22.1111C14.0622 22.5407 12.8024 22.7556 11.4667 22.7556C8.26193 22.7556 5.54963 21.6444 3.32978 19.4222C1.10993 17.2 0 14.5185 0 11.3778C0 8.23704 1.11111 5.55556 3.33333 3.33333C5.55556 1.11111 8.24444 0 11.4 0C14.5556 0 17.237 1.11111 19.4444 3.33333C21.6519 5.55556 22.7556 8.23926 22.7556 11.3844C22.7556 12.6541 22.5481 13.8815 22.1333 15.0667C21.7185 16.2519 21.0963 17.363 20.2667 18.4L32 30.0444L30.0444 32Z" fill="#111111"/>
</svg>
